<?xml version="1.0" standalone="no"?>
<!DOCTYPE svg PUBLIC "-//W3C//DTD SVG 20010904//EN"
 "http://www.w3.org/TR/2001/REC-SVG-20010904/DTD/svg10.dtd">
<svg version="1.0" xmlns="http://www.w3.org/2000/svg"
 width="700.000000pt" height="700.000000pt" viewBox="0 0 700.000000 700.000000"
 preserveAspectRatio="xMidYMid meet">
<metadata>
Created by potrace 1.11, written by Peter Selinger 2001-2013
</metadata>
<g transform="translate(0.000000,700.000000) scale(0.100000,-0.100000)"
fill="#000000" stroke="none">
<path d="M3298 6995 c-2 -1 -41 -6 -88 -9 -47 -3 -95 -8 -107 -10 -12 -3 -46
-7 -76 -10 -45 -5 -120 -19 -287 -52 -113 -23 -350 -96 -512 -158 -128 -49
-364 -161 -454 -216 -36 -22 -68 -40 -70 -40 -10 0 -214 -136 -299 -199 -591
-440 -1026 -1060 -1248 -1781 -35 -114 -56 -187 -63 -225 -6 -29 -11 -54 -24
-109 -6 -27 -12 -61 -14 -75 -2 -14 -9 -60 -15 -101 -7 -41 -14 -88 -16 -105
-31 -222 -26 -641 10 -882 13 -87 18 -115 36 -203 33 -156 49 -220 91 -355
241 -777 737 -1437 1413 -1879 315 -207 665 -365 1016 -460 117 -32 306 -72
379 -81 30 -4 57 -8 60 -10 10 -6 183 -19 205 -16 7 1 10 567 10 1684 0 1666
0 1682 20 1721 36 70 63 77 270 74 168 -3 182 -4 212 -26 62 -44 59 55 58
-1781 l0 -1673 55 6 c30 4 64 8 75 10 20 3 20 13 25 1687 5 1647 5 1685 24
1716 33 54 74 64 266 63 184 -2 209 -9 247 -67 17 -26 18 -105 20 -1651 1
-894 3 -1626 5 -1627 2 -2 23 6 48 17 25 11 58 25 74 32 l29 12 0 1586 c0
1745 -4 1624 60 1672 27 20 41 21 220 21 188 0 193 -1 224 -24 18 -14 38 -41
44 -60 9 -27 12 -397 12 -1489 0 -798 2 -1452 4 -1452 1 0 36 22 77 48 l74 48
-1 1410 c0 1555 -4 1451 61 1499 25 18 43 20 219 20 179 0 193 -1 220 -21 65
-48 61 32 61 -1267 0 -648 2 -1180 4 -1182 5 -6 132 124 202 207 43 51 124
157 220 288 81 109 248 410 326 584 105 235 207 575 246 815 3 18 8 43 10 55
2 11 6 41 9 66 3 25 8 54 10 65 19 92 27 510 12 675 -9 106 -24 228 -32 260 0
3 -4 27 -9 53 -63 398 -233 850 -456 1217 -203 335 -390 558 -706 841 -62 56
-240 189 -340 255 -432 284 -855 450 -1399 550 -52 9 -76 12 -240 30 -48 6
-502 14 -507 9z"/>
</g>
</svg>
