<svg
   xmlns="http://www.w3.org/2000/svg"
   version="1.1"
   viewBox="0 0 26.458333 26.458334"
   height="100"
   width="100">
  <g transform="translate(0,-270.54165)">
    <path
       transform="matrix(0.26458333,0,0,0.26458333,0,270.54165)"
       d="M 50 0 A 49.999998 49.999998 0 0 0 0 50 A 49.999998 49.999998 0 0 0 46.353516 99.818359 L 46.353516 52 C 46.353516 50.892 47.245516 50 48.353516 50 L 52.353516 50 C 53.461516 50 54.353516 50.892 54.353516 52 L 54.353516 99.775391 A 49.999998 49.999998 0 0 0 56.556641 99.470703 L 56.556641 52 C 56.556641 50.892 57.448641 50 58.556641 50 L 62.556641 50 C 63.664641 50 64.556641 50.892 64.556641 52 L 64.556641 97.779297 A 49.999998 49.999998 0 0 0 66.757812 96.988281 L 66.757812 52 C 66.757812 50.892 67.649814 50 68.757812 50 L 72.757812 50 C 73.865812 50 74.757812 50.892 74.757812 52 L 74.757812 93.333984 A 49.999998 49.999998 0 0 0 76.960938 91.927734 L 76.960938 52 C 76.960938 50.892 77.852938 50 78.960938 50 L 82.960938 50 C 84.068937 50 84.960938 50.892 84.960938 52 L 84.960938 85.554688 A 49.999998 49.999998 0 0 0 100 50 A 49.999998 49.999998 0 0 0 50 0 z "
       fill="#b16286" />
  </g>
</svg>
